<svg xmlns="http://www.w3.org/2000/svg" xmlns:xlink="http://www.w3.org/1999/xlink" version="1.1" x="0px" y="0px" viewBox="0 0 802.2 211.9" xml:space="preserve" fill="#FFFFFF">
  <path d="M200.2,88.1c0-24.7-22.4-36.4-44.8-36.4c-22.4,0-46.2,9.9-61.2,24.1V52.6L61.5,56l4.7,28.4v126.9H98l-3.8-22.6  V98.6c0,0,16.4-22.9,52.1-22.9c21.1,0,24.9,13.9,24.9,43.2v92.3h32.1l-3.1-21.9V88.1z M18,41.4c9.8,0,17.6-7.9,17.6-17.7  C35.6,14,27.7,6.1,18,6.1C8.2,6.1,0.3,14,0.3,23.7C0.3,33.5,8.2,41.4,18,41.4z M33.2,58.1L0,64.3l4.2,18v129h32.6l-3.6-22.6V58.1z   M337.1,56l-42.8,98.8l-6.4,16.3l-5.8-16.3L243,51.9l-33.3,4l14.9,25.6l46.5,126.3l25.5,4l70.3-160L337.1,56z M670.4,51.3h-39  l-61.2,72.6v3.4l68.7,84h38.7l-72.2-87.3L670.4,51.3z M445.3,51.3c-51.6,0-83.2,35.2-83.2,83.1c0,4.9,1.7,77.5,71.7,77.5  c52.3,0,82.9-38.9,82.9-83.4C516.7,76,486.1,51.3,445.3,51.3z M439.2,191.2c-28.5,0-45.9-27.2-45.9-59.6c0-32.4,17.3-59.6,45.9-59.6  c28.5,0,46.2,27.2,46.2,59.6C485.4,164,467.7,191.2,439.2,191.2z M699.8,131.3h102.4v-7.6c0-18.9-4.7-72.5-57.7-72.5  c-52,0-75,39.9-75,83.4c0,38.3,25.6,77.2,70.1,77.2c31.1,0,52.6-11.6,61.6-17.7v-27c-2,1.3-25.5,20.6-53.4,20.6  C714.8,187.8,700.4,159.3,699.8,131.3z M740.5,70.5c23.4,0,29.9,24.8,30.9,40.8h-70C706.2,89.3,717.4,70.5,740.5,70.5z M570.2,0  l-28.6,5.4l0.5,205.9H574l-3.8-22.6V0z"></path>
</svg>